<svg width="63" height="65" viewBox="0 0 63 65" fill="none" xmlns="http://www.w3.org/2000/svg">
<g id="icon-vkontakte" filter="url(#filter0_d_11_16)">
<path id="Vector" d="M44.0481 42.1066H40.9839C39.8238 42.1066 39.4652 41.1223 37.3811 38.8687C35.5656 36.9931 34.7627 36.741 34.3169 36.741C33.6911 36.741 33.5125 36.9316 33.5125 37.8529V40.8057C33.5125 41.601 33.2748 42.0766 31.3103 42.0766C27.3475 41.793 23.9416 39.4868 21.9644 36.1258L21.9348 36.0733C19.6398 33.0319 17.9481 29.3663 17.1114 25.3571L17.0805 25.1816C17.0805 24.7059 17.2591 24.2603 18.1225 24.2603H21.1867C21.9602 24.2603 22.2583 24.6414 22.5578 25.5297C24.0738 30.1991 26.605 34.2953 27.647 34.2953C28.0338 34.2953 28.2123 34.1047 28.2123 33.0574V28.2275C28.0928 26.0038 26.9917 25.8147 26.9917 25.021C27.0044 24.5964 27.3306 24.2573 27.73 24.2573C27.7427 24.2573 27.7539 24.2573 27.7666 24.2588H27.7652H32.5872C33.2425 24.2588 33.4802 24.6399 33.4802 25.4651V31.9771C33.4802 32.6748 33.7783 32.9299 33.9569 32.9299C34.3436 32.9299 34.6727 32.6748 35.3856 31.9141C36.8678 29.983 38.1348 27.7743 39.1009 25.3931L39.1656 25.2131C39.3695 24.6684 39.8589 24.2903 40.4313 24.2903C40.458 24.2903 40.4833 24.2918 40.51 24.2933H40.5058H43.57C44.4925 24.2933 44.702 24.7989 44.4925 25.4997C43.2634 28.388 41.8825 30.8698 40.2822 33.1685L40.3553 33.0574C40.0291 33.6291 39.9095 33.8827 40.3553 34.5204C40.6816 34.996 41.7545 35.9803 42.4689 36.8701C43.5025 37.9609 44.3688 39.2303 45.0227 40.6317L45.0578 40.7142C45.3559 41.6325 44.9088 42.1096 44.0453 42.1096L44.0481 42.1066ZM37.5611 10H24.6138C12.797 10 10 12.9844 10 25.5927V39.4073C10 52.0156 12.797 55 24.6138 55H37.5611C49.3778 55 52.1748 52.0156 52.1748 39.4073V25.5927C52.1748 12.9844 49.3469 10 37.5611 10Z" fill="white"/>
</g>
<defs>
<filter id="filter0_d_11_16" x="0" y="0" width="62.1748" height="65" filterUnits="userSpaceOnUse" color-interpolation-filters="sRGB">
<feFlood flood-opacity="0" result="BackgroundImageFix"/>
<feColorMatrix in="SourceAlpha" type="matrix" values="0 0 0 0 0 0 0 0 0 0 0 0 0 0 0 0 0 0 127 0" result="hardAlpha"/>
<feOffset/>
<feGaussianBlur stdDeviation="5"/>
<feComposite in2="hardAlpha" operator="out"/>
<feColorMatrix type="matrix" values="0 0 0 0 1 0 0 0 0 1 0 0 0 0 1 0 0 0 0.5 0"/>
<feBlend mode="normal" in2="BackgroundImageFix" result="effect1_dropShadow_11_16"/>
<feBlend mode="normal" in="SourceGraphic" in2="effect1_dropShadow_11_16" result="shape"/>
</filter>
</defs>
</svg>
