<svg width="230" height="230" viewBox="0 0 230 230" fill="none" xmlns="http://www.w3.org/2000/svg">
<g filter="url(#filter0_d_33_83)">
<path fill-rule="evenodd" clip-rule="evenodd" d="M162.822 174.188C172.289 165.522 177.022 154.388 177.022 140.788C177.022 130.165 174.43 121.235 169.246 114H217V196C217 207.046 208.046 216 197 216H32C20.9543 216 12 207.046 12 196V114H67.226C70.9749 117.263 75.5735 120.059 81.0219 122.388C91.8219 125.188 101.222 127.655 109.222 129.788C117.222 131.788 123.889 133.522 129.222 134.988C146.422 139.788 155.022 148.255 155.022 160.388C155.022 164.922 152.889 168.988 148.622 172.588C144.355 176.188 139.955 177.988 135.422 177.988C129.822 177.988 123.555 175.588 116.622 170.788L98.0219 157.588C90.5552 152.788 83.5552 150.388 77.0219 150.388C70.3552 150.388 64.5552 152.188 59.6219 155.788C54.1552 159.655 51.4219 164.788 51.4219 171.188C51.4219 177.988 53.8219 183.588 58.6219 187.988C59.5552 181.588 65.1552 178.388 75.4219 178.388C81.6885 178.388 90.2885 179.855 101.222 182.788C106.955 184.122 112.022 185.122 116.422 185.788C120.822 186.455 124.622 186.788 127.822 186.788C141.689 186.788 153.355 182.588 162.822 174.188ZM67.226 114C58.9566 106.802 54.8219 97.3314 54.8219 85.5884C54.8219 75.055 58.0885 65.9217 64.6219 58.1884C73.6885 47.1217 87.2219 41.5884 105.222 41.5884C108.155 41.5884 111.755 41.7884 116.022 42.1884C120.289 42.5884 125.422 43.1217 131.422 43.7884C137.422 44.455 142.555 44.9884 146.822 45.3884C151.222 45.7884 154.889 45.9884 157.822 45.9884C158.089 45.9884 159.222 45.855 161.222 45.5884C163.222 45.1884 165.955 44.655 169.422 43.9884C169.555 44.9217 169.622 45.7884 169.622 46.5884C169.755 47.255 169.822 47.855 169.822 48.3884C169.822 56.255 166.555 62.9884 160.022 68.5884C153.355 74.055 146.089 76.7884 138.222 76.7884C130.222 76.7884 124.355 73.5884 120.622 67.1884C122.489 65.3217 123.422 63.455 123.422 61.5884C123.422 57.7217 121.422 54.655 117.422 52.3884C113.955 50.5217 110.155 49.5884 106.022 49.5884C88.4219 49.5884 79.6219 55.655 79.6219 67.7884C79.6219 76.5884 88.0219 82.9884 104.822 86.9884C132.022 93.3884 147.622 97.655 151.622 99.7884C159.186 103.421 165.061 108.159 169.246 114H67.226Z" fill="black"/>
</g>
<g filter="url(#filter1_d_33_83)">
<path fill-rule="evenodd" clip-rule="evenodd" d="M30 10C18.9543 10 10 18.9543 10 30V200C10 211.046 18.9543 220 30 220H200C211.046 220 220 211.046 220 200V30C220 18.9543 211.046 10 200 10H30ZM32 15C22.6112 15 15 22.6112 15 32V198C15 207.389 22.6112 215 32 215H198C207.389 215 215 207.389 215 198V32C215 22.6112 207.389 15 198 15H32Z" fill="black"/>
</g>
<defs>
<filter id="filter0_d_33_83" x="2" y="31.5884" width="225" height="194.412" filterUnits="userSpaceOnUse" color-interpolation-filters="sRGB">
<feFlood flood-opacity="0" result="BackgroundImageFix"/>
<feColorMatrix in="SourceAlpha" type="matrix" values="0 0 0 0 0 0 0 0 0 0 0 0 0 0 0 0 0 0 127 0" result="hardAlpha"/>
<feOffset/>
<feGaussianBlur stdDeviation="5"/>
<feComposite in2="hardAlpha" operator="out"/>
<feColorMatrix type="matrix" values="0 0 0 0 0 0 0 0 0 0 0 0 0 0 0 0 0 0 0.5 0"/>
<feBlend mode="normal" in2="BackgroundImageFix" result="effect1_dropShadow_33_83"/>
<feBlend mode="normal" in="SourceGraphic" in2="effect1_dropShadow_33_83" result="shape"/>
</filter>
<filter id="filter1_d_33_83" x="0" y="0" width="230" height="230" filterUnits="userSpaceOnUse" color-interpolation-filters="sRGB">
<feFlood flood-opacity="0" result="BackgroundImageFix"/>
<feColorMatrix in="SourceAlpha" type="matrix" values="0 0 0 0 0 0 0 0 0 0 0 0 0 0 0 0 0 0 127 0" result="hardAlpha"/>
<feOffset/>
<feGaussianBlur stdDeviation="5"/>
<feComposite in2="hardAlpha" operator="out"/>
<feColorMatrix type="matrix" values="0 0 0 0 0 0 0 0 0 0 0 0 0 0 0 0 0 0 0.5 0"/>
<feBlend mode="normal" in2="BackgroundImageFix" result="effect1_dropShadow_33_83"/>
<feBlend mode="normal" in="SourceGraphic" in2="effect1_dropShadow_33_83" result="shape"/>
</filter>
</defs>
</svg>
