<svg width="148" height="156" viewBox="0 0 148 156" fill="none" xmlns="http://www.w3.org/2000/svg">
<path d="M79.5664 156H48.3164C41.7409 156 35.5234 154.763 29.6641 152.289C23.8047 149.815 18.694 146.397 14.332 142.035C9.97005 137.738 6.51953 132.693 3.98047 126.898C1.44141 121.104 0.171875 114.887 0.171875 108.246V94.1836H60.3281C60.5234 98.4154 60.9141 101.703 61.5 104.047C62.0208 106.391 62.9648 108.116 64.332 109.223C65.6341 110.329 67.4896 110.98 69.8984 111.176C72.3073 111.436 75.5299 111.566 79.5664 111.566V156ZM147.73 109.418C147.73 117.035 146.201 123.643 143.141 129.242C140.081 134.841 136.044 139.496 131.031 143.207C126.018 146.983 120.322 149.848 113.941 151.801C107.496 153.819 100.888 155.023 94.1172 155.414L84.1562 156V103.363C84.1562 99.457 83.1471 96.5273 81.1289 94.5742C79.1107 92.6211 76.5065 91.2214 73.3164 90.375C70.1263 89.5938 66.5781 89.1055 62.6719 88.9102C58.7005 88.7799 54.7943 88.5521 50.9531 88.2266C44.2474 87.6406 37.8672 86.5339 31.8125 84.9062C25.6927 83.3438 20.3216 80.9674 15.6992 77.7773C11.0768 74.5872 7.39844 70.4206 4.66406 65.2773C1.92969 60.1341 0.5625 53.6562 0.5625 45.8438C0.5625 38.4219 2.125 31.8789 5.25 26.2148C8.3099 20.6159 12.6068 15.8958 18.1406 12.0547C23.6094 8.27865 30.1523 5.41406 37.7695 3.46094C45.3216 1.57292 53.5898 0.628906 62.5742 0.628906V51.0195C62.5742 53.3633 62.8997 55.2839 63.5508 56.7812C64.2018 58.3438 65.1458 59.5807 66.3828 60.4922C67.6198 61.4688 69.0846 62.1849 70.7773 62.6406C72.4049 63.1615 74.2604 63.5521 76.3438 63.8125C81.5521 64.3984 86.9557 64.9518 92.5547 65.4727C98.0885 66.0586 103.492 66.8724 108.766 67.9141C114.039 68.9557 119.052 70.388 123.805 72.2109C128.492 74.0339 132.626 76.5404 136.207 79.7305C139.723 82.9206 142.522 86.9245 144.605 91.7422L147.73 109.418ZM142.945 59.6133H84.3516C84.2214 57.7904 84.0911 55.8698 83.9609 53.8516C83.7656 51.8333 83.3424 49.9453 82.6914 48.1875C82.0404 46.4948 81.0312 45.0625 79.6641 43.8906C78.2969 42.7839 76.4089 42.2305 74 42.2305H67.1641V0.628906H95.9727C102.418 0.628906 108.505 1.83333 114.234 4.24219C119.898 6.65104 124.879 9.9388 129.176 14.1055C133.408 18.2721 136.76 23.1549 139.234 28.7539C141.708 34.418 142.945 40.4401 142.945 46.8203V59.6133Z" fill="#FF0000"/>
</svg>
