<svg width="45" height="45" viewBox="0 0 45 45" fill="none" xmlns="http://www.w3.org/2000/svg">
<g id="icon-spotify">
<g id="Dribbble-Light-Preview">
<g id="icons">
<path id="spotify-[#162]" fill-rule="evenodd" clip-rule="evenodd" d="M35.8088 19.9468C28.557 15.6403 16.5937 15.2437 9.66824 17.3452C8.55674 17.6805 7.38224 17.0549 7.04474 15.9412C6.70724 14.8297 7.335 13.6551 8.4465 13.3176C16.3957 10.9034 29.6078 11.3689 37.9575 16.3257C38.9565 16.9197 39.285 18.2117 38.691 19.2107C38.1015 20.2097 36.8055 20.5408 35.8088 19.9468ZM35.5725 26.3254C35.064 27.1512 33.984 27.4096 33.1582 26.9033C27.1125 23.1863 17.892 22.1107 10.7393 24.282C9.81001 24.561 8.83126 24.0389 8.55001 23.1119C8.27101 22.1849 8.793 21.2058 9.72 20.9246C17.8897 18.4451 28.0485 19.6468 34.9943 23.915C35.82 24.4213 36.0787 25.5019 35.5725 26.3254ZM32.8185 32.4514C32.4135 33.1129 31.5517 33.3222 30.8902 32.9172C25.6072 29.6885 18.9563 28.9598 11.124 30.7485C10.3703 30.9218 9.6165 30.4487 9.4455 29.6927C9.27225 28.939 9.7425 28.1884 10.5007 28.0151C19.071 26.0554 26.4217 26.8986 32.3527 30.5233C33.0142 30.9283 33.2235 31.7899 32.8185 32.4514ZM22.5 0C10.0733 0 0 10.0733 0 22.5C0 34.9267 10.0733 45 22.5 45C34.9267 45 45 34.9267 45 22.5C45 10.0755 34.9267 0 22.5 0Z" fill="white"/>
</g>
</g>
</g>
</svg>
