<svg width="43" height="45" viewBox="0 0 43 45" fill="none" xmlns="http://www.w3.org/2000/svg">
<g id="icon-vkontakte">
<path id="Vector" d="M34.0481 32.1066H30.9839C29.8238 32.1066 29.4652 31.1223 27.3811 28.8687C25.5656 26.9931 24.7627 26.741 24.3169 26.741C23.6911 26.741 23.5125 26.9316 23.5125 27.8529V30.8057C23.5125 31.601 23.2748 32.0766 21.3103 32.0766C17.3475 31.793 13.9416 29.4868 11.9644 26.1258L11.9348 26.0733C9.63984 23.0319 7.94812 19.3663 7.11141 15.3571L7.08047 15.1816C7.08047 14.7059 7.25906 14.2603 8.1225 14.2603H11.1867C11.9602 14.2603 12.2583 14.6414 12.5578 15.5297C14.0738 20.1991 16.605 24.2953 17.647 24.2953C18.0337 24.2953 18.2123 24.1047 18.2123 23.0574V18.2275C18.0928 16.0038 16.9917 15.8147 16.9917 15.021C17.0044 14.5964 17.3306 14.2573 17.73 14.2573C17.7427 14.2573 17.7539 14.2573 17.7666 14.2588H17.7652H22.5872C23.2425 14.2588 23.4802 14.6399 23.4802 15.4651V21.9771C23.4802 22.6748 23.7783 22.9299 23.9569 22.9299C24.3436 22.9299 24.6727 22.6748 25.3856 21.9141C26.8678 19.983 28.1348 17.7743 29.1009 15.3931L29.1656 15.2131C29.3695 14.6684 29.8589 14.2903 30.4313 14.2903C30.458 14.2903 30.4833 14.2918 30.51 14.2933H30.5058H33.57C34.4925 14.2933 34.702 14.7989 34.4925 15.4996C33.2634 18.388 31.8825 20.8698 30.2822 23.1685L30.3553 23.0574C30.0291 23.6291 29.9095 23.8827 30.3553 24.5204C30.6816 24.996 31.7545 25.9803 32.4689 26.8701C33.5025 27.9609 34.3688 29.2303 35.0227 30.6317L35.0578 30.7142C35.3559 31.6325 34.9088 32.1096 34.0453 32.1096L34.0481 32.1066ZM27.5611 0H14.6138C2.79703 0 0 2.9844 0 15.5927V29.4073C0 42.0156 2.79703 45 14.6138 45H27.5611C39.3778 45 42.1748 42.0156 42.1748 29.4073V15.5927C42.1748 2.9844 39.3469 0 27.5611 0Z" fill="white"/>
</g>
</svg>
