<svg width="65" height="65" viewBox="0 0 65 65" fill="none" xmlns="http://www.w3.org/2000/svg">
<g id="icon-telegram" filter="url(#filter0_d_11_19)">
<path id="Vector" d="M41.6987 23.4686C41.7077 23.4686 41.7196 23.4686 41.7316 23.4686C42.0438 23.4686 42.3337 23.5657 42.5712 23.7331L42.5667 23.7301C42.74 23.881 42.8566 24.0931 42.885 24.3322V24.3367C42.9148 24.5189 42.9313 24.7281 42.9313 24.9417C42.9313 25.0388 42.9283 25.1345 42.9208 25.2301V25.2166C42.5847 28.756 41.1265 37.3391 40.3855 41.3013C40.0717 42.9791 39.4547 43.5408 38.8571 43.5946C37.5588 43.7156 36.5727 42.7371 35.3147 41.9124C33.3456 40.62 32.2326 39.8162 30.3217 38.5568C28.1121 37.1031 29.5448 36.3008 30.8028 34.995C31.133 34.6514 36.8566 29.4447 36.9686 28.9726C36.9746 28.9442 36.9776 28.9128 36.9776 28.88C36.9776 28.7634 36.9343 28.6574 36.864 28.5767C36.7864 28.5259 36.6892 28.4975 36.5877 28.4975C36.5204 28.4975 36.4562 28.511 36.3964 28.5334L36.3994 28.5319C36.2022 28.5767 33.0568 30.6554 26.9631 34.7679C26.2983 35.2923 25.4587 35.624 24.5443 35.6628H24.5354C23.24 35.506 22.0642 35.2176 20.9482 34.8068L21.0588 34.8426C19.6574 34.3855 18.5443 34.1449 18.6399 33.371C18.6907 32.9686 19.2455 32.5568 20.3043 32.1355C26.8262 29.2938 31.1753 27.4208 33.3516 26.5164C35.7525 25.242 38.5359 24.1932 41.4626 23.5134L41.6972 23.4671L41.6987 23.4686ZM32.4477 10C20.0443 10.0299 10 20.0921 10 32.5C10 44.9258 20.0727 55 32.5 55C44.9273 55 55 44.9273 55 32.5C55 20.0921 44.9557 10.0299 32.5553 10H32.5523C32.5174 10 32.4826 10 32.4477 10Z" fill="white"/>
</g>
<defs>
<filter id="filter0_d_11_19" x="0" y="0" width="65" height="65" filterUnits="userSpaceOnUse" color-interpolation-filters="sRGB">
<feFlood flood-opacity="0" result="BackgroundImageFix"/>
<feColorMatrix in="SourceAlpha" type="matrix" values="0 0 0 0 0 0 0 0 0 0 0 0 0 0 0 0 0 0 127 0" result="hardAlpha"/>
<feOffset/>
<feGaussianBlur stdDeviation="5"/>
<feComposite in2="hardAlpha" operator="out"/>
<feColorMatrix type="matrix" values="0 0 0 0 1 0 0 0 0 1 0 0 0 0 1 0 0 0 0.5 0"/>
<feBlend mode="normal" in2="BackgroundImageFix" result="effect1_dropShadow_11_19"/>
<feBlend mode="normal" in="SourceGraphic" in2="effect1_dropShadow_11_19" result="shape"/>
</filter>
</defs>
</svg>
