<svg width="55" height="55" viewBox="0 0 55 55" fill="none" xmlns="http://www.w3.org/2000/svg">
<g id="Group 1" filter="url(#filter0_d_11_19)">
<path id="Vector" d="M36.6987 18.4686C36.7077 18.4686 36.7196 18.4686 36.7316 18.4686C37.0438 18.4686 37.3337 18.5657 37.5712 18.7331L37.5667 18.7301C37.74 18.881 37.8566 19.0931 37.885 19.3322V19.3367C37.9148 19.5189 37.9313 19.7281 37.9313 19.9417C37.9313 20.0388 37.9283 20.1345 37.9208 20.2301V20.2166C37.5847 23.756 36.1265 32.3391 35.3855 36.3013C35.0717 37.9791 34.4547 38.5408 33.8571 38.5946C32.5588 38.7156 31.5727 37.7371 30.3147 36.9124C28.3456 35.62 27.2326 34.8162 25.3217 33.5568C23.1121 32.1031 24.5448 31.3008 25.8028 29.995C26.133 29.6514 31.8566 24.4447 31.9686 23.9726C31.9746 23.9442 31.9776 23.9128 31.9776 23.88C31.9776 23.7634 31.9343 23.6574 31.864 23.5767C31.7864 23.5259 31.6892 23.4975 31.5876 23.4975C31.5204 23.4975 31.4562 23.511 31.3964 23.5334L31.3994 23.5319C31.2022 23.5767 28.0568 25.6554 21.9631 29.7679C21.2983 30.2923 20.4587 30.624 19.5443 30.6628H19.5354C18.24 30.506 17.0642 30.2176 15.9482 29.8068L16.0588 29.8426C14.6574 29.3855 13.5443 29.1449 13.6399 28.371C13.6907 27.9686 14.2455 27.5568 15.3043 27.1355C21.8262 24.2938 26.1753 22.4208 28.3516 21.5164C30.7525 20.242 33.5359 19.1932 36.4626 18.5134L36.6972 18.4671L36.6987 18.4686ZM27.4477 5C15.0443 5.02988 5 15.0921 5 27.5C5 39.9258 15.0727 50 27.5 50C39.9273 50 50 39.9273 50 27.5C50 15.0921 39.9557 5.02988 27.5553 5H27.5523C27.5174 5 27.4826 5 27.4477 5Z" fill="white"/>
</g>
<defs>
<filter id="filter0_d_11_19" x="0" y="0" width="55" height="55" filterUnits="userSpaceOnUse" color-interpolation-filters="sRGB">
<feFlood flood-opacity="0" result="BackgroundImageFix"/>
<feColorMatrix in="SourceAlpha" type="matrix" values="0 0 0 0 0 0 0 0 0 0 0 0 0 0 0 0 0 0 127 0" result="hardAlpha"/>
<feOffset/>
<feGaussianBlur stdDeviation="2.5"/>
<feComposite in2="hardAlpha" operator="out"/>
<feColorMatrix type="matrix" values="0 0 0 0 1 0 0 0 0 1 0 0 0 0 1 0 0 0 0.25 0"/>
<feBlend mode="normal" in2="BackgroundImageFix" result="effect1_dropShadow_11_19"/>
<feBlend mode="normal" in="SourceGraphic" in2="effect1_dropShadow_11_19" result="shape"/>
</filter>
</defs>
</svg>
