<svg width="65" height="65" viewBox="0 0 65 65" fill="none" xmlns="http://www.w3.org/2000/svg">
<g id="icon-spotify" filter="url(#filter0_d_10_8)">
<g id="Dribbble-Light-Preview">
<g id="icons">
<path id="spotify-[#162]" fill-rule="evenodd" clip-rule="evenodd" d="M45.8088 29.9468C38.557 25.6403 26.5937 25.2437 19.6682 27.3452C18.5567 27.6805 17.3822 27.0549 17.0447 25.9412C16.7072 24.8297 17.335 23.6551 18.4465 23.3176C26.3957 20.9034 39.6078 21.3689 47.9575 26.3257C48.9565 26.9197 49.285 28.2117 48.691 29.2107C48.1015 30.2097 46.8055 30.5408 45.8088 29.9468ZM45.5725 36.3254C45.064 37.1512 43.984 37.4096 43.1582 36.9033C37.1125 33.1863 27.892 32.1107 20.7393 34.282C19.81 34.561 18.8313 34.0389 18.55 33.1119C18.271 32.1849 18.793 31.2058 19.72 30.9246C27.8897 28.4451 38.0485 29.6468 44.9943 33.915C45.82 34.4213 46.0787 35.5019 45.5725 36.3254ZM42.8185 42.4514C42.4135 43.1129 41.5517 43.3222 40.8902 42.9172C35.6072 39.6885 28.9563 38.9598 21.124 40.7485C20.3703 40.9218 19.6165 40.4487 19.4455 39.6927C19.2722 38.939 19.7425 38.1884 20.5007 38.0151C29.071 36.0554 36.4217 36.8986 42.3527 40.5233C43.0142 40.9283 43.2235 41.7899 42.8185 42.4514ZM32.5 10C20.0733 10 10 20.0733 10 32.5C10 44.9268 20.0733 55 32.5 55C44.9268 55 55 44.9268 55 32.5C55 20.0755 44.9268 10 32.5 10Z" fill="white"/>
</g>
</g>
</g>
<defs>
<filter id="filter0_d_10_8" x="0" y="0" width="65" height="65" filterUnits="userSpaceOnUse" color-interpolation-filters="sRGB">
<feFlood flood-opacity="0" result="BackgroundImageFix"/>
<feColorMatrix in="SourceAlpha" type="matrix" values="0 0 0 0 0 0 0 0 0 0 0 0 0 0 0 0 0 0 127 0" result="hardAlpha"/>
<feOffset/>
<feGaussianBlur stdDeviation="5"/>
<feComposite in2="hardAlpha" operator="out"/>
<feColorMatrix type="matrix" values="0 0 0 0 1 0 0 0 0 1 0 0 0 0 1 0 0 0 0.5 0"/>
<feBlend mode="normal" in2="BackgroundImageFix" result="effect1_dropShadow_10_8"/>
<feBlend mode="normal" in="SourceGraphic" in2="effect1_dropShadow_10_8" result="shape"/>
</filter>
</defs>
</svg>
