<svg width="210" height="210" viewBox="0 0 210 210" fill="none" xmlns="http://www.w3.org/2000/svg">
<path fill-rule="evenodd" clip-rule="evenodd" d="M152.822 164.188C162.289 155.522 167.022 144.388 167.022 130.788C167.022 120.165 164.43 111.235 159.246 104H207V186C207 197.046 198.046 206 187 206H22C10.9543 206 2 197.046 2 186V104H57.226C60.9749 107.263 65.5735 110.059 71.0219 112.388C81.8219 115.188 91.2219 117.655 99.2219 119.788C107.222 121.788 113.889 123.522 119.222 124.988C136.422 129.788 145.022 138.255 145.022 150.388C145.022 154.922 142.889 158.988 138.622 162.588C134.355 166.188 129.955 167.988 125.422 167.988C119.822 167.988 113.555 165.588 106.622 160.788L88.0219 147.588C80.5552 142.788 73.5552 140.388 67.0219 140.388C60.3552 140.388 54.5552 142.188 49.6219 145.788C44.1552 149.655 41.4219 154.788 41.4219 161.188C41.4219 167.988 43.8219 173.588 48.6219 177.988C49.5552 171.588 55.1552 168.388 65.4219 168.388C71.6885 168.388 80.2885 169.855 91.2219 172.788C96.9552 174.122 102.022 175.122 106.422 175.788C110.822 176.455 114.622 176.788 117.822 176.788C131.689 176.788 143.355 172.588 152.822 164.188ZM57.226 104C48.9566 96.802 44.8219 87.3314 44.8219 75.5884C44.8219 65.055 48.0885 55.9217 54.6219 48.1884C63.6885 37.1217 77.2219 31.5884 95.2219 31.5884C98.1552 31.5884 101.755 31.7884 106.022 32.1884C110.289 32.5884 115.422 33.1217 121.422 33.7884C127.422 34.455 132.555 34.9884 136.822 35.3884C141.222 35.7884 144.889 35.9884 147.822 35.9884C148.089 35.9884 149.222 35.855 151.222 35.5884C153.222 35.1884 155.955 34.655 159.422 33.9884C159.555 34.9217 159.622 35.7884 159.622 36.5884C159.755 37.255 159.822 37.855 159.822 38.3884C159.822 46.255 156.555 52.9884 150.022 58.5884C143.355 64.055 136.089 66.7884 128.222 66.7884C120.222 66.7884 114.355 63.5884 110.622 57.1884C112.489 55.3217 113.422 53.455 113.422 51.5884C113.422 47.7217 111.422 44.655 107.422 42.3884C103.955 40.5217 100.155 39.5884 96.0219 39.5884C78.4219 39.5884 69.6219 45.655 69.6219 57.7884C69.6219 66.5884 78.0219 72.9884 94.8219 76.9884C122.022 83.3884 137.622 87.655 141.622 89.7884C149.186 93.4215 155.061 98.1587 159.246 104H57.226Z" fill="white"/>
<path fill-rule="evenodd" clip-rule="evenodd" d="M20 0C8.95431 0 0 8.9543 0 20V190C0 201.046 8.9543 210 20 210H190C201.046 210 210 201.046 210 190V20C210 8.95431 201.046 0 190 0H20ZM22 5C12.6112 5 5 12.6112 5 22V188C5 197.389 12.6112 205 22 205H188C197.389 205 205 197.389 205 188V22C205 12.6112 197.389 5 188 5H22Z" fill="white"/>
</svg>
