<svg width="45" height="45" viewBox="0 0 45 45" fill="none" xmlns="http://www.w3.org/2000/svg">
<g id="icon-telegram">
<path id="Vector" d="M31.6987 13.4686C31.7077 13.4686 31.7196 13.4686 31.7316 13.4686C32.0438 13.4686 32.3337 13.5657 32.5712 13.7331L32.5667 13.7301C32.74 13.881 32.8566 14.0931 32.885 14.3322V14.3367C32.9148 14.5189 32.9313 14.7281 32.9313 14.9417C32.9313 15.0388 32.9283 15.1345 32.9208 15.2301V15.2166C32.5847 18.756 31.1265 27.3391 30.3855 31.3013C30.0717 32.9791 29.4547 33.5408 28.8571 33.5946C27.5588 33.7156 26.5727 32.7371 25.3147 31.9124C23.3456 30.62 22.2326 29.8162 20.3217 28.5568C18.1121 27.1031 19.5448 26.3008 20.8028 24.995C21.133 24.6514 26.8566 19.4447 26.9686 18.9726C26.9746 18.9442 26.9776 18.9128 26.9776 18.88C26.9776 18.7634 26.9343 18.6574 26.864 18.5767C26.7864 18.5259 26.6892 18.4975 26.5876 18.4975C26.5204 18.4975 26.4562 18.511 26.3964 18.5334L26.3994 18.5319C26.2022 18.5767 23.0568 20.6554 16.9631 24.7679C16.2983 25.2923 15.4587 25.624 14.5443 25.6628H14.5354C13.24 25.506 12.0642 25.2176 10.9482 24.8068L11.0588 24.8426C9.65737 24.3855 8.54432 24.1449 8.63994 23.371C8.69074 22.9686 9.24552 22.5568 10.3043 22.1355C16.8262 19.2938 21.1753 17.4208 23.3516 16.5164C25.7525 15.242 28.5359 14.1932 31.4626 13.5134L31.6972 13.4671L31.6987 13.4686ZM22.4477 0C10.0443 0.0298805 0 10.0921 0 22.5C0 34.9258 10.0727 45 22.5 45C34.9273 45 45 34.9273 45 22.5C45 10.0921 34.9557 0.0298805 22.5553 0H22.5523C22.5174 0 22.4826 0 22.4477 0Z" fill="white"/>
</g>
</svg>
