<svg width="45" height="45" viewBox="0 0 45 45" fill="none" xmlns="http://www.w3.org/2000/svg">
<g id="icon-github">
<g id="icons">
<path id="github-[#142]" fill-rule="evenodd" clip-rule="evenodd" d="M22.5 0C34.9267 0 45 10.3273 45 23.0691C45 33.2593 38.5605 41.9039 29.6257 44.9571C28.485 45.1844 28.08 44.4639 28.08 43.8497C28.08 43.0892 28.107 40.6053 28.107 37.5183C28.107 35.3673 27.387 33.9634 26.5792 33.2479C31.59 32.6764 36.855 30.7255 36.855 21.865C36.855 19.345 35.982 17.2886 34.5375 15.6731C34.7715 15.0903 35.5432 12.7439 34.317 9.56688C34.317 9.56688 32.4315 8.94874 28.1362 11.9322C26.3385 11.4215 24.4125 11.1645 22.5 11.1555C20.5875 11.1645 18.6637 11.4215 16.8682 11.9322C12.5685 8.94874 10.6785 9.56688 10.6785 9.56688C9.45674 12.7439 10.2285 15.0903 10.4602 15.6731C9.0225 17.2886 8.14275 19.345 8.14275 21.865C8.14275 30.703 13.3965 32.6838 18.3937 33.2666C17.7502 33.8426 17.1675 34.8587 16.965 36.3504C15.6825 36.9399 12.4245 37.9602 10.4175 34.4344C10.4175 34.4344 9.22724 32.2179 6.96824 32.0559C6.96824 32.0559 4.77449 32.0267 6.81524 33.4577C6.81524 33.4577 8.28899 34.1665 9.31274 36.8327C9.31274 36.8327 10.6335 40.9501 16.893 39.5551C16.9042 41.4834 16.9245 43.3007 16.9245 43.8497C16.9245 44.4594 16.5105 45.173 15.3877 44.9593C6.44624 41.9106 0 33.2616 0 23.0691C0 10.3273 10.0755 0 22.5 0Z" fill="white"/>
</g>
</g>
</svg>
