<svg width="53" height="55" viewBox="0 0 53 55" fill="none" xmlns="http://www.w3.org/2000/svg">
<g id="icon-vkontakte" filter="url(#filter0_d_11_16)">
<path id="Vector" d="M39.0481 37.1066H35.9839C34.8238 37.1066 34.4652 36.1223 32.3811 33.8687C30.5656 31.9931 29.7627 31.741 29.3169 31.741C28.6911 31.741 28.5125 31.9316 28.5125 32.8529V35.8057C28.5125 36.601 28.2748 37.0766 26.3103 37.0766C22.3475 36.793 18.9416 34.4868 16.9644 31.1258L16.9348 31.0733C14.6398 28.0319 12.9481 24.3663 12.1114 20.3571L12.0805 20.1816C12.0805 19.7059 12.2591 19.2603 13.1225 19.2603H16.1867C16.9602 19.2603 17.2583 19.6414 17.5578 20.5297C19.0738 25.1991 21.605 29.2953 22.647 29.2953C23.0337 29.2953 23.2123 29.1047 23.2123 28.0574V23.2275C23.0928 21.0038 21.9917 20.8147 21.9917 20.021C22.0044 19.5964 22.3306 19.2573 22.73 19.2573C22.7427 19.2573 22.7539 19.2573 22.7666 19.2588H22.7652H27.5872C28.2425 19.2588 28.4802 19.6399 28.4802 20.4651V26.9771C28.4802 27.6748 28.7783 27.9299 28.9569 27.9299C29.3436 27.9299 29.6727 27.6748 30.3856 26.9141C31.8678 24.983 33.1348 22.7743 34.1009 20.3931L34.1656 20.2131C34.3695 19.6684 34.8589 19.2903 35.4313 19.2903C35.458 19.2903 35.4833 19.2918 35.51 19.2933H35.5058H38.57C39.4925 19.2933 39.702 19.7989 39.4925 20.4996C38.2634 23.388 36.8825 25.8698 35.2822 28.1685L35.3553 28.0574C35.0291 28.6291 34.9095 28.8827 35.3553 29.5204C35.6816 29.996 36.7545 30.9803 37.4689 31.8701C38.5025 32.9609 39.3688 34.2303 40.0227 35.6317L40.0578 35.7142C40.3559 36.6325 39.9088 37.1096 39.0453 37.1096L39.0481 37.1066ZM32.5611 5H19.6138C7.79703 5 5 7.9844 5 20.5927V34.4073C5 47.0156 7.79703 50 19.6138 50H32.5611C44.3778 50 47.1748 47.0156 47.1748 34.4073V20.5927C47.1748 7.9844 44.3469 5 32.5611 5Z" fill="white"/>
</g>
<defs>
<filter id="filter0_d_11_16" x="0" y="0" width="52.1748" height="55" filterUnits="userSpaceOnUse" color-interpolation-filters="sRGB">
<feFlood flood-opacity="0" result="BackgroundImageFix"/>
<feColorMatrix in="SourceAlpha" type="matrix" values="0 0 0 0 0 0 0 0 0 0 0 0 0 0 0 0 0 0 127 0" result="hardAlpha"/>
<feOffset/>
<feGaussianBlur stdDeviation="2.5"/>
<feComposite in2="hardAlpha" operator="out"/>
<feColorMatrix type="matrix" values="0 0 0 0 1 0 0 0 0 1 0 0 0 0 1 0 0 0 0.25 0"/>
<feBlend mode="normal" in2="BackgroundImageFix" result="effect1_dropShadow_11_16"/>
<feBlend mode="normal" in="SourceGraphic" in2="effect1_dropShadow_11_16" result="shape"/>
</filter>
</defs>
</svg>
