<svg width="65" height="65" viewBox="0 0 65 65" fill="none" xmlns="http://www.w3.org/2000/svg">
<g id="icon-github" filter="url(#filter0_d_8_4)">
<g id="icons">
<path id="github-[#142]" fill-rule="evenodd" clip-rule="evenodd" d="M32.5 10C44.9267 10 55 20.3273 55 33.0691C55 43.2593 48.5605 51.9039 39.6257 54.9571C38.485 55.1843 38.08 54.4639 38.08 53.8497C38.08 53.0892 38.107 50.6053 38.107 47.5183C38.107 45.3673 37.387 43.9634 36.5792 43.2479C41.59 42.6764 46.855 40.7255 46.855 31.865C46.855 29.345 45.982 27.2886 44.5375 25.6731C44.7715 25.0903 45.5432 22.7439 44.317 19.5669C44.317 19.5669 42.4315 18.9487 38.1362 21.9322C36.3385 21.4215 34.4125 21.1645 32.5 21.1555C30.5875 21.1645 28.6637 21.4215 26.8682 21.9322C22.5685 18.9487 20.6785 19.5669 20.6785 19.5669C19.4567 22.7439 20.2285 25.0903 20.4602 25.6731C19.0225 27.2886 18.1427 29.345 18.1427 31.865C18.1427 40.703 23.3965 42.6838 28.3937 43.2666C27.7502 43.8426 27.1675 44.8587 26.965 46.3504C25.6825 46.9399 22.4245 47.9602 20.4175 44.4344C20.4175 44.4344 19.2272 42.2179 16.9682 42.0559C16.9682 42.0559 14.7745 42.0267 16.8152 43.4577C16.8152 43.4577 18.289 44.1665 19.3127 46.8327C19.3127 46.8327 20.6335 50.9501 26.893 49.5551C26.9042 51.4834 26.9245 53.3007 26.9245 53.8497C26.9245 54.4594 26.5105 55.173 25.3877 54.9593C16.4462 51.9106 10 43.2616 10 33.0691C10 20.3273 20.0755 10 32.5 10Z" fill="white"/>
</g>
</g>
<defs>
<filter id="filter0_d_8_4" x="0" y="0" width="65" height="65" filterUnits="userSpaceOnUse" color-interpolation-filters="sRGB">
<feFlood flood-opacity="0" result="BackgroundImageFix"/>
<feColorMatrix in="SourceAlpha" type="matrix" values="0 0 0 0 0 0 0 0 0 0 0 0 0 0 0 0 0 0 127 0" result="hardAlpha"/>
<feOffset/>
<feGaussianBlur stdDeviation="5"/>
<feComposite in2="hardAlpha" operator="out"/>
<feColorMatrix type="matrix" values="0 0 0 0 1 0 0 0 0 1 0 0 0 0 1 0 0 0 0.5 0"/>
<feBlend mode="normal" in2="BackgroundImageFix" result="effect1_dropShadow_8_4"/>
<feBlend mode="normal" in="SourceGraphic" in2="effect1_dropShadow_8_4" result="shape"/>
</filter>
</defs>
</svg>
