<svg width="567" height="571" viewBox="0 0 567 571" fill="none" xmlns="http://www.w3.org/2000/svg">
<path d="M469 288.699V284.729C386.629 282.082 349.03 280.097 318.871 250.98C289.643 220.937 287.517 183.483 284.993 101.428H281.007C278.35 183.483 276.357 220.937 247.129 250.98C216.97 280.097 179.371 282.214 97 284.729V288.699C179.371 291.346 216.97 293.331 247.129 322.448C276.357 352.491 278.483 389.945 281.007 472H284.993C287.65 389.945 289.643 352.491 318.871 322.448C349.03 293.331 386.629 291.214 469 288.699Z" fill="white"/>
<g filter="url(#filter0_f_1_7)">
<path d="M467 286.357C283.5 286.357 283.5 286.357 283.5 470.572C283.5 286.357 283.5 286.357 100 286.357C283.5 286.357 283.5 286.357 283.5 100C283.5 286.357 283.5 286.357 467 286.357Z" fill="white"/>
</g>
<defs>
<filter id="filter0_f_1_7" x="0" y="0" width="567" height="570.572" filterUnits="userSpaceOnUse" color-interpolation-filters="sRGB">
<feFlood flood-opacity="0" result="BackgroundImageFix"/>
<feBlend mode="normal" in="SourceGraphic" in2="BackgroundImageFix" result="shape"/>
<feGaussianBlur stdDeviation="50" result="effect1_foregroundBlur_1_7"/>
</filter>
</defs>
</svg>
